<svg xmlns="http://www.w3.org/2000/svg" version="1.1" xmlns:xlink="http://www.w3.org/1999/xlink" width="200" height="200"><svg xmlns="http://www.w3.org/2000/svg" version="1.1" xmlns:xlink="http://www.w3.org/1999/xlink" viewBox="0 0 200 200"><rect width="200" height="200" fill="url('#gradient')"></rect><defs><linearGradient id="SvgjsLinearGradient1006" gradientTransform="rotate(45 0.5 0.5)"><stop offset="0%" stop-color="#ffffff"></stop><stop offset="100%" stop-color="#adacac"></stop></linearGradient></defs><g><g fill="#4b90be" transform="matrix(1.921000521104742,0,0,1.921000521104742,8.795307216835624,114.22723517534695)" stroke="#273b56" stroke-width="0.2"><path d="M8.41-3.78L8.41-3.78Q8.41-4.53 7.88-4.95Q7.34-5.37 6.01-5.82Q4.67-6.27 3.82-6.69L3.82-6.69Q1.05-8.05 1.05-10.42L1.05-10.42Q1.05-11.60 1.74-12.50Q2.43-13.41 3.69-13.91Q4.95-14.41 6.52-14.41L6.52-14.41Q8.06-14.41 9.27-13.87Q10.49-13.32 11.16-12.31Q11.84-11.30 11.84-10L11.84-10L8.42-10Q8.42-10.87 7.89-11.35Q7.35-11.83 6.45-11.83L6.45-11.83Q5.53-11.83 5.00-11.42Q4.46-11.02 4.46-10.39L4.46-10.39Q4.46-9.84 5.05-9.40Q5.63-8.96 7.11-8.48Q8.58-8.01 9.53-7.46L9.53-7.46Q11.84-6.13 11.84-3.80L11.84-3.80Q11.84-1.93 10.43-0.87Q9.02 0.20 6.57 0.20L6.57 0.20Q4.84 0.20 3.44-0.42Q2.04-1.04 1.33-2.12Q0.63-3.20 0.63-4.61L0.63-4.61L4.06-4.61Q4.06-3.47 4.65-2.92Q5.24-2.38 6.57-2.38L6.57-2.38Q7.42-2.38 7.92-2.75Q8.41-3.12 8.41-3.78ZM19.83 0L19.74-1.14Q18.69 0.20 16.91 0.20L16.91 0.20Q15.18 0.20 14.28-0.82Q13.39-1.83 13.39-3.72L13.39-3.72L13.39-10.57L16.68-10.57L16.68-3.70Q16.68-2.34 18.00-2.34L18.00-2.34Q19.13-2.34 19.61-3.15L19.61-3.15L19.61-10.57L22.92-10.57L22.92 0L19.83 0ZM24.31-5.36L24.31-5.36Q24.31-7.87 25.39-9.32Q26.47-10.76 28.42-10.76L28.42-10.76Q29.83-10.76 30.80-9.65L30.80-9.65L30.80-15L34.10-15L34.10 0L31.14 0L30.98-1.13Q29.96 0.20 28.40 0.20L28.40 0.20Q26.51 0.20 25.41-1.25Q24.31-2.70 24.31-5.36ZM27.61-5.76L27.60-5.16Q27.60-2.34 29.24-2.34L29.24-2.34Q30.33-2.34 30.80-3.26L30.80-3.26L30.80-7.29Q30.35-8.22 29.26-8.22L29.26-8.22Q27.73-8.22 27.61-5.76L27.61-5.76ZM35.57-4.82L35.56-5.38Q35.56-6.96 36.17-8.20Q36.79-9.43 37.94-10.10Q39.09-10.76 40.64-10.76L40.64-10.76Q43.02-10.76 44.38-9.29Q45.75-7.82 45.75-5.29L45.75-5.29L45.75-5.18Q45.75-2.71 44.38-1.25Q43.01 0.20 40.66 0.20L40.66 0.20Q38.41 0.20 37.04-1.16Q35.67-2.51 35.57-4.82L35.57-4.82ZM38.86-5.77L38.85-5.18Q38.85-3.71 39.31-3.03Q39.77-2.34 40.66-2.34L40.66-2.34Q42.42-2.34 42.46-5.05L42.46-5.05L42.46-5.38Q42.46-8.22 40.64-8.22L40.64-8.22Q38.99-8.22 38.86-5.77L38.86-5.77ZM56.31-8.30L56.31-5.66L50.78-5.66L50.78 0L47.35 0L47.35-14.22L56.87-14.22L56.87-11.57L50.78-11.57L50.78-8.30L56.31-8.30ZM57.53-4.82L57.52-5.38Q57.52-6.96 58.13-8.20Q58.75-9.43 59.90-10.10Q61.05-10.76 62.61-10.76L62.61-10.76Q64.98-10.76 66.35-9.29Q67.71-7.82 67.71-5.29L67.71-5.29L67.71-5.18Q67.71-2.71 66.34-1.25Q64.97 0.20 62.63 0.20L62.63 0.20Q60.37 0.20 59.00-1.16Q57.64-2.51 57.53-4.82L57.53-4.82ZM60.82-5.77L60.81-5.18Q60.81-3.71 61.27-3.03Q61.73-2.34 62.63-2.34L62.63-2.34Q64.38-2.34 64.42-5.05L64.42-5.05L64.42-5.38Q64.42-8.22 62.61-8.22L62.61-8.22Q60.96-8.22 60.82-5.77L60.82-5.77ZM72.64-15L72.64 0L69.34 0L69.34-15L72.64-15ZM81.21 0L78.91-3.94L77.98-3.01L77.98 0L74.69 0L74.69-15.01L77.98-15.01L77.98-7.04L78.31-7.48L80.79-10.57L84.74-10.57L81.04-6.22L84.98 0L81.21 0ZM91.13-2.97L91.13-2.97Q91.13-3.39 90.69-3.64Q90.25-3.90 89.02-4.17Q87.79-4.44 86.99-4.89Q86.19-5.33 85.77-5.97Q85.35-6.60 85.35-7.42L85.35-7.42Q85.35-8.88 86.55-9.82Q87.75-10.76 89.70-10.76L89.70-10.76Q91.79-10.76 93.06-9.81Q94.33-8.87 94.33-7.32L94.33-7.32L91.03-7.32Q91.03-8.59 89.69-8.59L89.69-8.59Q89.17-8.59 88.82-8.31Q88.47-8.02 88.47-7.59L88.47-7.59Q88.47-7.15 88.90-6.88Q89.33-6.60 90.27-6.43Q91.21-6.25 91.92-6.01L91.92-6.01Q94.31-5.19 94.31-3.07L94.31-3.07Q94.31-1.62 93.02-0.71Q91.74 0.20 89.70 0.20L89.70 0.20Q88.34 0.20 87.28-0.29Q86.21-0.78 85.62-1.62Q85.02-2.46 85.02-3.39L85.02-3.39L88.10-3.39Q88.12-2.66 88.58-2.32Q89.05-1.98 89.79-1.98L89.79-1.98Q90.46-1.98 90.80-2.26Q91.13-2.53 91.13-2.97Z"></path></g></g></svg><style>@media (prefers-color-scheme: light) { :root { filter: none; } }
@media (prefers-color-scheme: dark) { :root { filter: none; } }
</style></svg>